<?xml version="1.0" standalone="no"?>
<!DOCTYPE svg PUBLIC "-//W3C//DTD SVG 1.1//EN" "http://www.w3.org/Graphics/SVG/1.1/DTD/svg11.dtd" >
<svg xmlns="http://www.w3.org/2000/svg">
<metadata></metadata>
<defs>
<font id="cansiparanebold" horiz-adv-x="1292" >
<font-face units-per-em="2048" ascent="1638" descent="-410" />
<missing-glyph horiz-adv-x="614" />
<glyph horiz-adv-x="0" />
<glyph horiz-adv-x="682" />
<glyph unicode=" "  horiz-adv-x="614" />
<glyph unicode="&#x09;" horiz-adv-x="614" />
<glyph unicode="&#xa0;" horiz-adv-x="614" />
<glyph unicode="!" horiz-adv-x="606" d="M102 168q0 -88 56.5 -144.5t144.5 -56.5t144.5 56.5t56.5 144.5t-56.5 144.5t-144.5 56.5t-144.5 -56.5t-56.5 -144.5zM119 485v969h368v-969h-368z" />
<glyph unicode="&#x22;" horiz-adv-x="1077" d="M72 1286q0 88 56 144.5t144 56.5t144.5 -56.5t56.5 -144.5v-428h-201v227q-88 0 -144 56.5t-56 144.5zM573 1286q0 88 56.5 144.5t144.5 56.5t144.5 -56.5t56.5 -144.5v-428h-201v227q-88 0 -144.5 56.5t-56.5 144.5z" />
<glyph unicode="#" horiz-adv-x="1667" d="M82 338l70 313h204l35 154h-213l70 313h203l69 336h367l-72 -336h201l69 336h363l-70 -336h207l-61 -313h-207l-35 -154h207l-62 -313h-206l-74 -338h-365l70 338h-195l-75 -338h-363l68 338h-205zM719 651h201l36 154h-202z" />
<glyph unicode="$" horiz-adv-x="1273" d="M43 442h367v-145h444v145q0 44 -21.5 73t-71.5 43t-75.5 18t-88.5 9q-5 1 -7 1q-84 6 -157 21.5t-144 47.5t-121 78t-80.5 117t-30.5 160q0 183 111.5 301t290.5 157v306h348v-312q166 -44 270 -160.5t101 -291.5h-351v141h-399v-141q0 -33 15.5 -55.5t48 -36.5t70 -21 t93.5 -12q101 -10 178 -25t156 -47.5t129.5 -80t82.5 -124.5t32 -178q0 -90 -34 -167t-93.5 -131t-135 -91t-163.5 -55v-305h-348v305q-90 19 -164.5 56.5t-132.5 93.5t-89.5 134.5t-29.5 171.5z" />
<glyph unicode="%" horiz-adv-x="2220" d="M51 1051q0 105 36 189.5t96.5 137.5t136 81t157.5 28t158 -28t136.5 -81t97 -137.5t36.5 -189.5q0 -107 -36.5 -192.5t-97.5 -137t-136 -78.5t-158 -27q-82 0 -157.5 28t-136 80.5t-96.5 137t-36 189.5zM340 1051q0 -66 40 -106t97 -40t97 40t40 106t-40 104.5t-97 38.5 t-97 -38.5t-40 -104.5zM477 0v328h258l527 1126h479v-328h-260l-525 -1126h-479zM1315 401q0 105 36 190t96.5 137.5t136 81t157.5 28.5t158 -28.5t136.5 -81t97 -137.5t36.5 -190q0 -107 -36.5 -192.5t-97.5 -137t-136 -78t-158 -26.5q-82 0 -157.5 28t-136 80t-96.5 136.5 t-36 189.5zM1604 401q0 -66 40 -105.5t97 -39.5t97 39.5t40 105.5t-40 105t-97 39t-97 -39t-40 -105z" />
<glyph unicode="&#x26;" horiz-adv-x="1386" d="M41 487q0 167 86.5 287.5t228.5 175.5l-114 209h-103v328h1151v-328h-649l369 -641l280 152v-389l-112 -64l127 -217h-392l-34 55q-123 -69 -285 -69q-156 0 -280 57t-198.5 172.5t-74.5 271.5zM397 487q0 -81 54.5 -127.5t136.5 -46.5q67 0 123 37l-181 305 q-61 -16 -97 -58.5t-36 -109.5z" />
<glyph unicode="'" horiz-adv-x="575" d="M72 1286q0 88 56 144.5t144 56.5t144.5 -56.5t56.5 -144.5v-428h-201v227q-88 0 -144 56.5t-56 144.5z" />
<glyph unicode="(" horiz-adv-x="831" d="M102 -160v1774q0 76 11.5 139t30 110t50.5 84t63.5 61.5t78.5 42.5t87 27.5t97 14.5t100 6.5t105 1.5h86v-327h-340v-2093h340v-328h-86q-62 0 -105 1.5t-100 6.5t-97 14.5t-87 27.5t-78.5 42.5t-63.5 61.5t-50.5 84t-30 110t-11.5 139z" />
<glyph unicode=")" horiz-adv-x="831" d="M20 -319h340v2093h-340v327h86q62 0 105 -1.5t100 -6.5t97 -14.5t87 -27.5t78.5 -42.5t63.5 -61.5t50.5 -84t30 -110t11.5 -139v-1774q0 -76 -11.5 -139t-30 -110t-50.5 -84t-63.5 -61.5t-78.5 -42.5t-87 -27.5t-97 -14.5t-100 -6.5t-105 -1.5h-86v328z" />
<glyph unicode="*" horiz-adv-x="739" d="M72 1104v102h170l-123 125l78 74l120 -121v170h103v-172l123 123l73 -76l-122 -123h174v-102h-172l122 -123l-77 -74l-121 121v-170h-103v172l-122 -123l-74 76l121 121h-170z" />
<glyph unicode="+" d="M102 537v372h357v357h372v-357h359v-372h-359v-359h-372v359h-357z" />
<glyph unicode="," horiz-adv-x="575" d="M72 168q0 88 56 144.5t144 56.5t144.5 -56.5t56.5 -144.5v-428h-201v227q-88 0 -144 56.5t-56 144.5z" />
<glyph unicode="-" d="M102 537v372h1088v-372h-1088z" />
<glyph unicode="." horiz-adv-x="544" d="M72 201q0 88 56 144t144 56t144.5 -56t56.5 -144t-56.5 -144.5t-144.5 -56.5t-144 56.5t-56 144.5z" />
<glyph unicode="/" horiz-adv-x="1288" d="M10 -236l895 1926h373l-895 -1926h-373z" />
<glyph unicode="0" horiz-adv-x="1290" d="M92 471v512q0 157 74.5 273t198.5 173.5t280 57.5t280 -57.5t198.5 -173.5t74.5 -273v-512q0 -153 -74 -268.5t-199 -175.5t-280 -60t-280 60t-199 175.5t-74 268.5zM451 477q0 -86 53 -130t141 -44q89 0 142 44t53 130v500q0 87 -53.5 133.5t-141.5 46.5t-141 -46.5 t-53 -133.5v-500z" />
<glyph unicode="1" horiz-adv-x="870" d="M82 0v328h184v798h-184v328h553v-1126h184v-328h-737z" />
<glyph unicode="2" horiz-adv-x="1148" d="M82 0v328h108q361 399 424 471q78 88 78 211q0 62 -39.5 99.5t-95.5 37.5q-58 0 -96.5 -36t-38.5 -107h-326q0 221 131.5 354t352.5 129q122 0 223 -45t166 -131q47 -63 72 -139t26 -159.5t-33.5 -172t-103.5 -166.5l-301 -346h434v-328h-981z" />
<glyph unicode="3" horiz-adv-x="1294" d="M82 475h369q0 -85 49.5 -126.5t136.5 -41.5t136.5 41.5t49.5 126.5v115h-448v328h2l192 208h-415v328h1038v-328h-195l-184 -208h379v-449q0 -157 -74.5 -272t-199 -172.5t-281.5 -57.5t-281.5 59t-199 175.5t-74.5 273.5z" />
<glyph unicode="4" horiz-adv-x="1294" d="M72 266v328h94l319 532h-79v328h671v-860h125v-328h-125v-266h-348v266h-657zM516 594h234v395z" />
<glyph unicode="5" horiz-adv-x="1284" d="M72 475h368q0 -85 50 -126.5t137 -41.5t136.5 41.5t49.5 126.5v115h-670v864h1039v-328h-711v-208h711v-449q0 -157 -74.5 -272t-199 -172.5t-281.5 -57.5t-281.5 59t-199 175.5t-74.5 273.5z" />
<glyph unicode="6" horiz-adv-x="1318" d="M102 455v999h1076v-401h-375v86h-326v-203q96 14 182 14q159 0 270.5 -32t176 -96.5t93 -151.5t28.5 -207v-8q0 -121 -28.5 -208t-93 -151.5t-175.5 -96.5t-271 -32q-156 0 -264.5 32t-172.5 96t-92 151.5t-28 208.5zM477 463q0 -61 16 -103.5t44 -63.5t57.5 -29.5 t64.5 -8.5q40 0 70.5 8.5t58.5 30t43 63.5t15 103q0 111 -51.5 153.5t-135.5 42.5q-35 0 -64.5 -8.5t-57.5 -28.5t-44 -60.5t-16 -98.5z" />
<glyph unicode="7" horiz-adv-x="1249" d="M41 1126v328h1178v-328h-140l-465 -1126h-372l465 1126h-666z" />
<glyph unicode="8" horiz-adv-x="1210" d="M41 459q0 107 48.5 205.5t139.5 164.5q-85 108 -98 244q-2 78 27.5 150.5t86.5 132t151.5 95.5t211.5 36q114 0 205.5 -35t148 -93t86 -129.5t29.5 -148.5q0 -127 -98 -252q90 -65 136.5 -160t51.5 -204q2 -94 -33 -182t-102 -159t-177.5 -114t-246.5 -43 q-137 0 -247.5 42t-179 112t-104.5 157t-36 181zM426 319h356v314h-356v-314zM489 954h230v217h-230v-217z" />
<glyph unicode="9" horiz-adv-x="1318" d="M92 991v8q0 121 28 208t93 151.5t175.5 96.5t270.5 32q156 0 265 -32t173 -96t92 -151.5t28 -208.5v-999h-1076v401h375v-86h326v203q-96 -14 -183 -14q-128 0 -224.5 21.5t-161.5 61t-105.5 100t-58 134.5t-17.5 170zM473 991q0 -111 51 -153.5t135 -42.5q35 0 64.5 8.5 t58 28.5t44.5 60.5t16 98.5q0 61 -16 103.5t-44.5 63.5t-58 29.5t-64.5 8.5q-40 0 -70.5 -8.5t-58 -30t-42.5 -63.5t-15 -103z" />
<glyph unicode=":" horiz-adv-x="544" d="M72 467q0 88 56 144.5t144 56.5t144.5 -56.5t56.5 -144.5t-56.5 -144.5t-144.5 -56.5t-144 56.5t-56 144.5zM72 942q0 88 56 144.5t144 56.5t144.5 -56.5t56.5 -144.5t-56.5 -144.5t-144.5 -56.5t-144 56.5t-56 144.5z" />
<glyph unicode=";" horiz-adv-x="544" d="M72 467q0 88 56 144.5t144 56.5t144.5 -56.5t56.5 -144.5v-8v-420h-201v227q-88 0 -144 56.5t-56 144.5zM72 942q0 88 56 144.5t144 56.5t144.5 -56.5t56.5 -144.5t-56.5 -144.5t-144.5 -56.5t-144 56.5t-56 144.5z" />
<glyph unicode="&#x3c;" horiz-adv-x="884" d="M72 553v346l710 346v-334l-395 -184l395 -195v-333z" />
<glyph unicode="=" d="M102 281v372h1088v-372h-1088zM102 756v372h1088v-372h-1088z" />
<glyph unicode="&#x3e;" horiz-adv-x="884" d="M102 199v333l396 195l-396 184v334l711 -346v-346z" />
<glyph unicode="?" horiz-adv-x="1253" d="M61 946q0 157 74.5 273.5t199 175.5t281.5 59t281.5 -57.5t199 -172.5t74.5 -272v-467h-919v328h551v133q0 85 -50 126.5t-137 41.5t-136.5 -41.5t-49.5 -126.5h-369zM233 168q0 -88 56.5 -144.5t144.5 -56.5t144.5 56.5t56.5 144.5t-56.5 144.5t-144.5 56.5 t-144.5 -56.5t-56.5 -144.5z" />
<glyph unicode="A" horiz-adv-x="1308" d="M102 0v1454h1104v-1454h-368v322h-367v-322h-369zM471 639h367v487h-367v-487z" />
<glyph unicode="B" horiz-adv-x="1284" d="M102 0v1454h631q206 0 332.5 -121t126.5 -323q0 -74 -33 -145.5t-84 -108.5q86 -46 132 -128t46 -182q0 -198 -120 -322t-340 -124h-691zM471 324h297q53 0 81 31t28 79q0 60 -34.5 94.5t-88.5 34.5h-283v-239zM471 893h234q54 0 85 35.5t31 81.5q0 52 -29.5 90.5 t-86.5 38.5h-234v-246z" />
<glyph unicode="C" horiz-adv-x="1556" d="M51 723q0 149 42.5 275.5t115 215t170.5 151t208 92.5t228 30q93 0 182.5 -20t176 -65t155.5 -109.5t119 -160.5t68 -212h-379q-40 111 -120.5 160.5t-201.5 49.5q-173 0 -276 -111t-103 -296q0 -173 104.5 -289.5t274.5 -116.5q121 0 210 60.5t120 177.5h371 q-17 -122 -65 -222t-115.5 -167t-154 -112.5t-178 -66t-188.5 -20.5q-118 0 -228.5 29.5t-208 92t-170 150.5t-115 212.5t-42.5 271.5z" />
<glyph unicode="D" horiz-adv-x="1413" d="M102 0v1454h547q357 0 535 -178.5t178 -542.5v-14q0 -364 -177.5 -541.5t-535.5 -177.5h-547zM471 344h172q175 0 258.5 86.5t83.5 296.5v6q0 206 -83.5 291.5t-258.5 85.5h-172v-766z" />
<glyph unicode="E" horiz-adv-x="1175" d="M102 0v1454h1002v-328h-633v-211h600v-327h-600v-240h633v-348h-1002z" />
<glyph unicode="F" horiz-adv-x="1175" d="M102 0v1454h1002v-328h-633v-211h600v-327h-600v-588h-369z" />
<glyph unicode="G" horiz-adv-x="1570" d="M51 725q0 147 43 272.5t116.5 214t170.5 151.5t206 93.5t222 30.5t219 -30.5t199.5 -90.5t162.5 -160t97 -229h-371q-52 88 -124 125t-183 37q-87 0 -158 -33t-116 -90.5t-69 -131.5t-24 -159q0 -185 99.5 -296.5t267.5 -111.5q120 0 195 40.5t126 142.5h-428v321h814 q2 -51 2 -97q0 -70 -4 -130q-8 -99 -41 -199q-41 -112 -111.5 -196.5t-159 -134t-187 -73.5t-206.5 -24q-113 0 -222 30t-206 92.5t-170.5 150.5t-116.5 213t-43 272z" />
<glyph unicode="H" horiz-adv-x="1308" d="M102 0v1454h369v-580h367v580h368v-1454h-368v547h-367v-547h-369z" />
<glyph unicode="I" horiz-adv-x="839" d="M51 0v328h185v798h-185v328h737v-328h-184v-798h184v-328h-737z" />
<glyph unicode="J" horiz-adv-x="1253" d="M41 469v195h369v-189q0 -85 49.5 -126.5t136.5 -41.5t136.5 41.5t49.5 126.5v651h-510v328h879v-985q0 -157 -74.5 -272t-199 -172.5t-281.5 -57.5t-281.5 57.5t-199 172.5t-74.5 272z" />
<glyph unicode="K" horiz-adv-x="1388" d="M102 0v1454h369v-541h94l293 541h479v-328h-231l-219 -399l219 -399h231v-328h-479l-293 545h-94v-545h-369z" />
<glyph unicode="L" horiz-adv-x="1138" d="M102 0v1454h369v-1081h637v-373h-1006z" />
<glyph unicode="M" horiz-adv-x="1662" d="M102 0v1454h369v-260l360 -354l361 354v260h369v-1454h-369v668l-361 -367l-360 367v-668h-369z" />
<glyph unicode="N" horiz-adv-x="1437" d="M102 0v1454h369v-260l496 -418v678h368v-1454h-368v238l-496 430v-668h-369z" />
<glyph unicode="O" horiz-adv-x="1603" d="M51 723q0 147 41.5 272.5t113 214.5t167 152.5t204 94t222.5 30.5h6q144 0 276 -49.5t238 -142.5t169.5 -241.5t63.5 -330.5q0 -147 -42 -271.5t-114.5 -212.5t-168.5 -150.5t-204.5 -92t-223.5 -29.5t-223 29.5t-203.5 92t-167 150.5t-113 212.5t-41.5 271.5zM430 723 q0 -96 31.5 -173.5t84 -125.5t117.5 -73t136 -25t136.5 25t119.5 73t86.5 125.5t32.5 173.5t-31.5 174t-85 126t-119.5 73.5t-139 25.5q-70 0 -135.5 -25.5t-118 -73.5t-84 -126t-31.5 -174z" />
<glyph unicode="P" horiz-adv-x="1302" d="M102 0v1454h627q259 0 396 -144.5t137 -404.5q0 -257 -135.5 -391.5t-397.5 -134.5h-258v-379h-369zM471 707h258q81 0 125.5 59t44.5 154q0 94 -44 150t-126 56h-258v-419z" />
<glyph unicode="Q" horiz-adv-x="1562" d="M31 723q0 182 63.5 330.5t169.5 241.5t238 142.5t276 49.5h6q114 0 222.5 -30.5t204 -94t167 -152.5t113 -214.5t41.5 -272.5q0 -246 -111.5 -418.5t-294.5 -261.5v-362h-348v286q-115 0 -222.5 29.5t-203 92t-167 150.5t-113 212.5t-41.5 271.5zM410 723 q0 -96 31.5 -173.5t84 -125.5t117 -73t135.5 -25t136.5 25t119.5 73t86.5 125.5t32.5 173.5t-31.5 174t-85 126t-119.5 73.5t-139 25.5q-70 0 -135 -25.5t-117.5 -73.5t-84 -126t-31.5 -174z" />
<glyph unicode="R" horiz-adv-x="1349" d="M102 0v1454h627q259 0 396 -144.5t137 -404.5q0 -344 -238 -465l63 -112h232v-328h-479l-205 379h-164v-379h-369zM471 707h258q81 0 125.5 59t44.5 154q0 94 -44 150t-126 56h-258v-419z" />
<glyph unicode="S" horiz-adv-x="1273" d="M43 442h367v-145h444v145q0 44 -21.5 73t-71.5 43t-75.5 18t-88.5 9q-5 1 -7 1q-84 6 -157 21.5t-144 47.5t-121 78t-80.5 117t-30.5 160q0 115 46.5 207t126 150t181.5 89t216 31q85 0 165 -19t151 -58.5t124 -95.5t83 -134q28 -74 28 -159v-11h-351v141h-399v-141 q0 -33 15.5 -55.5t48 -36.5t70 -21t93.5 -12q101 -10 178 -25t156 -47.5t129.5 -80t82.5 -124.5t32 -178q0 -111 -51 -201t-136.5 -146t-190 -86t-216.5 -30q-93 0 -180.5 18.5t-164 57t-133 94t-88.5 133.5q-30 74 -30 161v11z" />
<glyph unicode="T" horiz-adv-x="1249" d="M31 1081v373h1188v-373h-410v-1081h-369v1081h-409z" />
<glyph unicode="U" horiz-adv-x="1335" d="M102 0v1454h369v-1126h393v1126h369v-1454h-1131z" />
<glyph unicode="V" horiz-adv-x="1470" d="M31 1126v328h540v-328l164 -426l164 426v328h541v-328h-127l-484 -1126h-188l-483 1126h-127z" />
<glyph unicode="W" horiz-adv-x="2207" d="M31 1126v328h540v-328l164 -426l164 426v328h410v-328l164 -426l163 426v328h541v-328h-127l-483 -1126h-189l-274 643l-275 -643h-188l-483 1126h-127z" />
<glyph unicode="X" horiz-adv-x="1376" d="M92 0v520l303 178l-303 187v569h369v-354l227 -133l227 133v354h369v-569l-303 -187l303 -178v-520h-369v299l-227 129l-227 -129v-299h-369z" />
<glyph unicode="Y" horiz-adv-x="1376" d="M92 618v836h369v-618l227 -125l227 125v618h369v-836l-412 -239v-379h-368v379z" />
<glyph unicode="Z" horiz-adv-x="1308" d="M82 0v328h192l424 798h-616v328h1145v-328h-121l-434 -798h555v-328h-1145z" />
<glyph unicode="[" horiz-adv-x="837" d="M102 -647v2421v327h715v-327h-366v-2093h366v-328h-715z" />
<glyph unicode="\" horiz-adv-x="1288" d="M10 -236l895 1926h373l-895 -1926h-373z" />
<glyph unicode="]" horiz-adv-x="837" d="M20 -319h715v-328h-715v328zM20 1774v327h715v-2420h-348v2093h-367z" />
<glyph unicode="^" horiz-adv-x="1073" d="M20 879l402 575h229l402 -575h-330l-186 260l-187 -260h-330z" />
<glyph unicode="_" horiz-adv-x="1148" d="M31 -201h1087v-372h-1087v372z" />
<glyph unicode="a" horiz-adv-x="1308" d="M102 0v1454h1104v-1454h-368v322h-367v-322h-369zM471 639h367v487h-367v-487z" />
<glyph unicode="b" horiz-adv-x="1284" d="M102 0v1454h631q206 0 332.5 -121t126.5 -323q0 -74 -33 -145.5t-84 -108.5q86 -46 132 -128t46 -182q0 -198 -120 -322t-340 -124h-691zM471 324h297q53 0 81 31t28 79q0 60 -34.5 94.5t-88.5 34.5h-283v-239zM471 893h234q54 0 85 35.5t31 81.5q0 52 -29.5 90.5 t-86.5 38.5h-234v-246z" />
<glyph unicode="c" horiz-adv-x="1556" d="M51 723q0 149 42.5 275.5t115 215t170.5 151t208 92.5t228 30q93 0 182.5 -20t176 -65t155.5 -109.5t119 -160.5t68 -212h-379q-40 111 -120.5 160.5t-201.5 49.5q-173 0 -276 -111t-103 -296q0 -173 104.5 -289.5t274.5 -116.5q121 0 210 60.5t120 177.5h371 q-17 -122 -65 -222t-115.5 -167t-154 -112.5t-178 -66t-188.5 -20.5q-118 0 -228.5 29.5t-208 92t-170 150.5t-115 212.5t-42.5 271.5z" />
<glyph unicode="d" horiz-adv-x="1413" d="M102 0v1454h547q357 0 535 -178.5t178 -542.5v-14q0 -364 -177.5 -541.5t-535.5 -177.5h-547zM471 344h172q175 0 258.5 86.5t83.5 296.5v6q0 206 -83.5 291.5t-258.5 85.5h-172v-766z" />
<glyph unicode="e" horiz-adv-x="1175" d="M102 0v1454h1002v-328h-633v-211h600v-327h-600v-240h633v-348h-1002z" />
<glyph unicode="f" horiz-adv-x="1175" d="M102 0v1454h1002v-328h-633v-211h600v-327h-600v-588h-369z" />
<glyph unicode="g" horiz-adv-x="1570" d="M51 725q0 147 43 272.5t116.5 214t170.5 151.5t206 93.5t222 30.5t219 -30.5t199.5 -90.5t162.5 -160t97 -229h-371q-52 88 -124 125t-183 37q-87 0 -158 -33t-116 -90.5t-69 -131.5t-24 -159q0 -185 99.5 -296.5t267.5 -111.5q120 0 195 40.5t126 142.5h-428v321h814 q2 -51 2 -97q0 -70 -4 -130q-8 -99 -41 -199q-41 -112 -111.5 -196.5t-159 -134t-187 -73.5t-206.5 -24q-113 0 -222 30t-206 92.5t-170.5 150.5t-116.5 213t-43 272z" />
<glyph unicode="h" horiz-adv-x="1308" d="M102 0v1454h369v-580h367v580h368v-1454h-368v547h-367v-547h-369z" />
<glyph unicode="i" horiz-adv-x="839" d="M51 0v328h185v798h-185v328h195v-147h348v147h194v-328h-184v-798h184v-328h-737z" />
<glyph unicode="j" horiz-adv-x="1253" d="M41 469v195h369v-189q0 -85 49.5 -126.5t136.5 -41.5t136.5 41.5t49.5 126.5v651h-510v328h879v-985q0 -157 -74.5 -272t-199 -172.5t-281.5 -57.5t-281.5 57.5t-199 172.5t-74.5 272z" />
<glyph unicode="k" horiz-adv-x="1388" d="M102 0v1454h369v-541h94l293 541h479v-328h-231l-219 -399l219 -399h231v-328h-479l-293 545h-94v-545h-369z" />
<glyph unicode="l" horiz-adv-x="1138" d="M102 0v1454h369v-1081h637v-373h-1006z" />
<glyph unicode="m" horiz-adv-x="1662" d="M102 0v1454h369v-260l360 -354l361 354v260h369v-1454h-369v668l-361 -367l-360 367v-668h-369z" />
<glyph unicode="n" horiz-adv-x="1437" d="M102 0v1454h369v-260l496 -418v678h368v-1454h-368v238l-496 430v-668h-369z" />
<glyph unicode="o" horiz-adv-x="1603" d="M51 723q0 147 41.5 272.5t113 214.5t167 152.5t204 94t222.5 30.5h6q144 0 276 -49.5t238 -142.5t169.5 -241.5t63.5 -330.5q0 -147 -42 -271.5t-114.5 -212.5t-168.5 -150.5t-204.5 -92t-223.5 -29.5t-223 29.5t-203.5 92t-167 150.5t-113 212.5t-41.5 271.5zM430 723 q0 -96 31.5 -173.5t84 -125.5t117.5 -73t136 -25t136.5 25t119.5 73t86.5 125.5t32.5 173.5t-31.5 174t-85 126t-119.5 73.5t-139 25.5q-70 0 -135.5 -25.5t-118 -73.5t-84 -126t-31.5 -174z" />
<glyph unicode="p" horiz-adv-x="1312" d="M102 0v1454h627q259 0 396 -144.5t137 -404.5q0 -257 -135.5 -391.5t-397.5 -134.5h-258v-379h-369zM471 707h258q81 0 125.5 59t44.5 154q0 94 -44 150t-126 56h-258v-419z" />
<glyph unicode="q" horiz-adv-x="1562" d="M31 723q0 182 63.5 330.5t169.5 241.5t238 142.5t276 49.5h6q114 0 222.5 -30.5t204 -94t167 -152.5t113 -214.5t41.5 -272.5q0 -246 -111.5 -418.5t-294.5 -261.5v-362h-348v286q-115 0 -222.5 29.5t-203 92t-167 150.5t-113 212.5t-41.5 271.5zM410 723 q0 -96 31.5 -173.5t84 -125.5t117 -73t135.5 -25t136.5 25t119.5 73t86.5 125.5t32.5 173.5t-31.5 174t-85 126t-119.5 73.5t-139 25.5q-70 0 -135 -25.5t-117.5 -73.5t-84 -126t-31.5 -174z" />
<glyph unicode="r" horiz-adv-x="1349" d="M102 0v1454h627q259 0 396 -144.5t137 -404.5q0 -344 -238 -465l63 -112h232v-328h-479l-205 379h-164v-379h-369zM471 707h258q81 0 125.5 59t44.5 154q0 94 -44 150t-126 56h-258v-419z" />
<glyph unicode="s" horiz-adv-x="1273" d="M43 442h367v-145h444v145q0 44 -21.5 73t-71.5 43t-75.5 18t-88.5 9q-5 1 -7 1q-84 6 -157 21.5t-144 47.5t-121 78t-80.5 117t-30.5 160q0 115 46.5 207t126 150t181.5 89t216 31q85 0 165 -19t151 -58.5t124 -95.5t83 -134q28 -74 28 -159v-11h-351v141h-399v-141 q0 -33 15.5 -55.5t48 -36.5t70 -21t93.5 -12q101 -10 178 -25t156 -47.5t129.5 -80t82.5 -124.5t32 -178q0 -111 -51 -201t-136.5 -146t-190 -86t-216.5 -30q-93 0 -180.5 18.5t-164 57t-133 94t-88.5 133.5q-30 74 -30 161v11z" />
<glyph unicode="t" horiz-adv-x="1249" d="M31 1081v373h1188v-373h-410v-1081h-369v1081h-409z" />
<glyph unicode="u" horiz-adv-x="1335" d="M102 0v1454h369v-1126h393v1126h369v-1454h-1131z" />
<glyph unicode="v" horiz-adv-x="1470" d="M31 1126v328h540v-328l164 -426l164 426v328h541v-328h-127l-484 -1126h-188l-483 1126h-127z" />
<glyph unicode="w" horiz-adv-x="2207" d="M31 1126v328h540v-328l164 -426l164 426v328h410v-328l164 -426l163 426v328h541v-328h-127l-483 -1126h-189l-274 643l-275 -643h-188l-483 1126h-127z" />
<glyph unicode="x" horiz-adv-x="1376" d="M92 0v520l303 178l-303 187v569h369v-354l227 -133l227 133v354h369v-569l-303 -187l303 -178v-520h-369v299l-227 129l-227 -129v-299h-369z" />
<glyph unicode="y" horiz-adv-x="1376" d="M92 618v836h369v-618l227 -125l227 125v618h369v-836l-412 -239v-379h-368v379z" />
<glyph unicode="z" horiz-adv-x="1308" d="M82 0v328h192l424 798h-616v328h1145v-328h-121l-434 -798h555v-328h-1145z" />
<glyph unicode="{" horiz-adv-x="1153" d="M82 543v368q7 0 19.5 1.5t48 11t67.5 23.5t71.5 44t68 69t48 101t19.5 137v316q0 76 11.5 139t30 110t50.5 84t63.5 61.5t78.5 42.5t87 27.5t97 14.5t100 6.5t105 1.5h86v-327h-340v-660q0 -94 -21.5 -166.5t-50.5 -111.5t-68 -65t-64 -34t-48 -10q23 -2 48 -10t64 -34 t68 -65t50.5 -111.5t21.5 -166.5v-659h340v-328h-86q-62 0 -105 1.5t-100 6.5t-97 14.5t-87 27.5t-78.5 42.5t-63.5 61.5t-50.5 84t-30 110t-11.5 139v316q0 75 -19 137t-49 101t-66.5 69t-73 44.5t-66.5 23t-49 10.5z" />
<glyph unicode="|" horiz-adv-x="573" d="M102 -319v2093h369v-2093h-369z" />
<glyph unicode="}" horiz-adv-x="1153" d="M20 -319h340v659q0 94 21.5 166.5t50.5 111.5t68 65t64 34t48 10q-23 2 -48 10t-64 34t-68 65t-50.5 111.5t-21.5 166.5v660h-340v327h86q62 0 105 -1.5t100 -6.5t97 -14.5t87 -27.5t78.5 -42.5t63.5 -61.5t50.5 -84t30 -110t11.5 -139v-316q0 -75 19 -137t49 -101 t66.5 -69t73 -44.5t66.5 -23t49 -10.5l19 -2v-368q-7 0 -19.5 -1.5t-48 -11t-67.5 -23.5t-71.5 -44t-68 -69t-48 -101t-19.5 -137v-316q0 -76 -11.5 -139t-30 -110t-50.5 -84t-63.5 -61.5t-78.5 -42.5t-87 -27.5t-97 -14.5t-100 -6.5t-105 -1.5h-86v328z" />
<glyph unicode="&#xab;" horiz-adv-x="933" d="M20 727l144 262l33 58h286l-176 -320l176 -326h-286l-33 64zM399 727l144 262l32 58h287l-176 -320l176 -326h-287l-32 64z" />
<glyph unicode="&#xad;" d="M102 537v372h1088v-372h-1088z" />
<glyph unicode="&#xbb;" horiz-adv-x="933" d="M72 401l176 326l-176 320h286l33 -58l144 -262l-144 -262l-33 -64h-286zM451 401l176 326l-176 320h286l33 -58l143 -262l-143 -262l-33 -64h-286z" />
<glyph unicode="&#xc7;" horiz-adv-x="1556" d="M51 723q0 149 42.5 275.5t115 215t170.5 151t208 92.5t228 30q93 0 182.5 -20t176 -65t155.5 -109.5t119 -160.5t68 -212h-379q-40 111 -120.5 160.5t-201.5 49.5q-173 0 -276 -111t-103 -296q0 -173 104.5 -289.5t274.5 -116.5q121 0 210 60.5t120 177.5h371 q-17 -124 -66 -225t-121 -169.5t-157 -111.5t-183 -63v182h-348v-182q-122 24 -227 82.5t-187 148.5t-129 220t-47 286z" />
<glyph unicode="&#xd6;" horiz-adv-x="1603" d="M51 723q0 227 93 393.5t253 261.5v-121h348v228q16 2 54 2h6q35 0 53 -2v-228h348v121q159 -96 252.5 -262.5t93.5 -392.5q0 -147 -42 -271.5t-114.5 -212.5t-168.5 -150.5t-204.5 -92t-223.5 -29.5t-223 29.5t-203.5 92t-167 150.5t-113 212.5t-41.5 271.5zM430 723 q0 -96 31.5 -173.5t84 -125.5t117.5 -73t136 -25t136.5 25t119.5 73t86.5 125.5t32.5 173.5t-31.5 174t-85 126t-119.5 73.5t-139 25.5q-70 0 -135.5 -25.5t-118 -73.5t-84 -126t-31.5 -174z" />
<glyph unicode="&#xd7;" horiz-adv-x="1083" d="M102 508l240 240l-240 241l197 201l242 -244l243 244l197 -201l-242 -241l242 -240l-197 -203l-243 244l-242 -244z" />
<glyph unicode="&#xdc;" horiz-adv-x="1335" d="M102 0v1454h195v-291h174v-835h393v835h174v291h195v-1454h-1131z" />
<glyph unicode="&#xe7;" horiz-adv-x="1556" d="M51 723q0 149 42.5 275.5t115 215t170.5 151t208 92.5t228 30q93 0 182.5 -20t176 -65t155.5 -109.5t119 -160.5t68 -212h-379q-40 111 -120.5 160.5t-201.5 49.5q-173 0 -276 -111t-103 -296q0 -173 104.5 -289.5t274.5 -116.5q121 0 210 60.5t120 177.5h371 q-17 -124 -66 -225t-121 -169.5t-157 -111.5t-183 -63v182h-348v-182q-122 24 -227 82.5t-187 148.5t-129 220t-47 286z" />
<glyph unicode="&#xf6;" horiz-adv-x="1603" d="M51 723q0 227 93 393.5t253 261.5v-121h348v228q16 2 54 2h6q35 0 53 -2v-228h348v121q159 -96 252.5 -262.5t93.5 -392.5q0 -147 -42 -271.5t-114.5 -212.5t-168.5 -150.5t-204.5 -92t-223.5 -29.5t-223 29.5t-203.5 92t-167 150.5t-113 212.5t-41.5 271.5zM430 723 q0 -96 31.5 -173.5t84 -125.5t117.5 -73t136 -25t136.5 25t119.5 73t86.5 125.5t32.5 173.5t-31.5 174t-85 126t-119.5 73.5t-139 25.5q-70 0 -135.5 -25.5t-118 -73.5t-84 -126t-31.5 -174z" />
<glyph unicode="&#xfc;" horiz-adv-x="1335" d="M102 0v1454h195v-291h174v-835h393v835h174v291h195v-1454h-1131z" />
<glyph unicode="&#x2000;" horiz-adv-x="1050" />
<glyph unicode="&#x2001;" horiz-adv-x="2101" />
<glyph unicode="&#x2002;" horiz-adv-x="1050" />
<glyph unicode="&#x2003;" horiz-adv-x="2101" />
<glyph unicode="&#x2004;" horiz-adv-x="700" />
<glyph unicode="&#x2005;" horiz-adv-x="525" />
<glyph unicode="&#x2006;" horiz-adv-x="350" />
<glyph unicode="&#x2007;" horiz-adv-x="350" />
<glyph unicode="&#x2008;" horiz-adv-x="262" />
<glyph unicode="&#x2009;" horiz-adv-x="420" />
<glyph unicode="&#x200a;" horiz-adv-x="116" />
<glyph unicode="&#x2010;" d="M102 537v372h1088v-372h-1088z" />
<glyph unicode="&#x2011;" d="M102 537v372h1088v-372h-1088z" />
<glyph unicode="&#x2012;" d="M102 537v372h1088v-372h-1088z" />
<glyph unicode="&#x2013;" horiz-adv-x="1228" d="M102 537v372h1024v-372h-1024z" />
<glyph unicode="&#x2014;" horiz-adv-x="2080" d="M102 537v372h1876v-372h-1876z" />
<glyph unicode="&#x202f;" horiz-adv-x="420" />
<glyph unicode="&#x2039;" horiz-adv-x="555" d="M72 401l176 326l-176 320h286l33 -58l144 -262l-144 -262l-33 -64h-286z" />
<glyph unicode="&#x203a;" horiz-adv-x="555" d="M20 727l144 262l33 58h286l-176 -320l176 -326h-286l-33 64z" />
<glyph unicode="&#x205f;" horiz-adv-x="525" />
<glyph unicode="&#x25fc;" horiz-adv-x="1454" d="M0 0v1454h1454v-1454h-1454z" />
</font>
</defs>
</svg>
